<?xml version="1.0" encoding="UTF-8"?>
<svg id="Capa_2" data-name="Capa 2" xmlns="http://www.w3.org/2000/svg" viewBox="0 0 213 77.81">
  <defs>
    <style>
      .cls-1 {
        stroke-width: .5px;
      }

      .cls-1, .cls-2, .cls-3, .cls-4, .cls-5 {
        fill: none;
        stroke-miterlimit: 10;
      }

      .cls-1, .cls-2, .cls-3, .cls-5 {
        stroke: #1d1d1b;
      }

      .cls-6 {
        letter-spacing: 0em;
      }

      .cls-7 {
        letter-spacing: -.05em;
      }

      .cls-2, .cls-4 {
        stroke-width: .4px;
      }

      .cls-8 {
        letter-spacing: .03em;
      }

      .cls-9 {
        fill: #701c1c;
      }

      .cls-10 {
        letter-spacing: .01em;
      }

      .cls-11 {
        opacity: .48;
      }

      .cls-3 {
        stroke-width: .31px;
      }

      .cls-12 {
        letter-spacing: 0em;
      }

      .cls-13 {
        fill: #292f68;
      }

      .cls-14 {
        font-size: 48px;
      }

      .cls-14, .cls-15 {
        fill: #1d1d1b;
        font-family: Voga-Medium, Voga;
        font-weight: 500;
      }

      .cls-4 {
        stroke: #212347;
      }

      .cls-15 {
        font-size: 14px;
      }

      .cls-5 {
        stroke-width: .41px;
      }

      .cls-16 {
        letter-spacing: -.02em;
      }
    </style>
  </defs>
  <g id="Capa_3" data-name="Capa 3">
    <text class="cls-14" transform="translate(77.15 56.86)"><tspan x="0" y="0">Z</tspan><tspan class="cls-12" x="16.7" y="0">O</tspan><tspan class="cls-6" x="36.29" y="0">R</tspan><tspan class="cls-7" x="56.5" y="0">V</tspan><tspan class="cls-8" x="73.25" y="0">A</tspan><tspan class="cls-10" x="93.89" y="0">N</tspan><tspan x="113.52" y="0">Z</tspan></text>
    <text class="cls-15" transform="translate(75.29 71.28)"><tspan x="0" y="0">Le </tspan><tspan class="cls-16" x="11.76" y="0">F</tspan><tspan x="16.27" y="0">ragrance</tspan></text>
  </g>
  <g id="Capa_4" data-name="Capa 4">
    <g>
      <path class="cls-1" d="m47.18,31.74c2.24-2.21,3.89-3.87.5-7.51-5.66-6.06-10.64-7.3-11.06-7.25-.94.1-3.35-.12-5.93.16,0,.03-.01.06-.02.09"/>
      <path class="cls-5" d="m27.55,17.77c1.01-.32,2.08-.51,3.13-.63,1-3.17-1.81-8.56-5.34-13.93-1.99-3.03-5.53-3.95-7.16-1.91-1.62,2.03-3.46,4.42-4.47,6-2.42,3.77-1.23,7.46.57,10.33"/>
      <path class="cls-1" d="m50.38,57.94c3.87.68,8.57.09,12.15-1.73,3.94-2,3.37-10.56,3.7-17.23.18-3.72-3.22-6.61-6.87-5.86-3.62.74-8.56.11-11.09.83-.23.06-3.7,1.39-3.91,1.46"/>
      <path class="cls-1" d="m50.1,45.13c.04-.72,0-1.59-.15-2.7.15,1.11.19,1.98.15,2.7,0,.28.02.56.02.85"/>
      <path class="cls-3" d="m13.42,17.82c-.87-5.6-6.09-5.62-8.11-5.72-3.94-.2-6.08,6.39-4.76,11.04.08.29.21.56.36.83"/>
      <path class="cls-2" d="m24.65,46.89s-.05-.04-.07-.05c0,0-.2.23.07.05Z"/>
      <path class="cls-4" d="m50.38,57.94c-1.58-.28-3.02-.76-4.19-1.47-5.81,3.33-23.17,4.39-21.12,7.91,2.38,4.09-7.99,13.28-7.99,13.28,0,0,10.37-9.19,7.99-13.28-2.05-3.52,15.31-4.58,21.12-7.91-1.55-.94-2.63-2.25-2.91-3.95-.53-3.21-8.17-14.07,1.08-17.11"/>
      <path class="cls-4" d="m47.18,31.74c-.24.24-.48.48-.73.73-2.66,2.7-10.47,8.86-13.68,7.39-5.95,5.34-7.66,6.73-8.11,7.03,5.02,3.67,11.18,7.39,8.14,13.45,3.04-6.06-3.12-9.78-8.14-13.45-.27.18-.07-.05-.07-.05-3.16-2.31-5.85-4.61-5.45-7.47.04-.28.06-.57.06-.86,0,0-.01.02-.02.03,0,0,.01-.02.02-.03.05-3.86-2.84-8.68-6.85-10.74,4.01,2.06,6.9,6.88,6.85,10.74,4.38-5.49,3.12-12.32,2.54-14.55-1.44-.1-2.83-.69-3.97-1.96-.86-.95-2.3-2.48-3.49-4.36-.29.06-.57.13-.85.2.04.24.08.48.1.75.13,1.61.16,4.23.15,6.5,0,2.29-2.23,3.94-4.53,3.34-3.66-.96-7.02-2.31-8.24-4.44"/>
      <path class="cls-2" d="m31.64,38.6c-2.83-7.44-8.25-11.1-8.94-14.66-.32.03-.65.03-.97,0,.58,2.24,1.84,9.07-2.54,14.55,0,.29-.02.58-.06.86-.39,2.86,2.29,5.15,5.45,7.47h0s0,0,0,0c.02.02.05.04.07.05.45-.29,2.16-1.69,8.11-7.03-.49-.23-.88-.63-1.12-1.26Z"/>
      <path class="cls-1" d="m22.7,23.94c.69,3.55,6.11,7.21,8.94,14.66.24.63.63,1.03,1.12,1.26.27-.24.55-.49.84-.75,5.78-5.2,3.02-13.02,3.02-13.02,0,0,2.77,7.82-3.02,13.02-.29.26-.57.51-.84.75,3.21,1.47,11.03-4.69,13.68-7.39.25-.25.49-.49.73-.73"/>
      <path class="cls-1" d="m27.55,17.77c-2.13.68-4,1.96-4.77,4.32-.2.63-.21,1.24-.09,1.85"/>
      <path class="cls-1" d="m43.28,52.52c.28,1.7,1.36,3.02,2.91,3.95.93-.53-.21-3.42,0-4.09,1.29-4.07,3.71-3.49,3.91-7.25"/>
      <path class="cls-1" d="m50.12,45.98c0-.29-.01-.57-.02-.85-.19,3.77-2.62,3.18-3.91,7.25-.21.67.93,3.56,0,4.09,1.17.7,2.61,1.19,4.19,1.47"/>
      <g class="cls-11">
        <path class="cls-9" d="m27.55,74.46c3.79.14,7.32-.65,10.6-2.37,3.41-1.11,6.36-3,8.85-5.69,2.68-2.49,4.58-5.44,5.69-8.85,1.72-3.28,2.51-6.81,2.37-10.6l-.98-7.31c-1.31-4.66-3.66-8.7-7.07-12.13l-5.57-4.3c-4.29-2.49-8.92-3.74-13.88-3.75-3.79-.14-7.32.65-10.6,2.37-3.41,1.11-6.36,3-8.85,5.69-2.68,2.49-4.58,5.44-5.69,8.85C.7,39.64-.09,43.17.05,46.96l.98,7.31c1.31,4.66,3.66,8.7,7.07,12.13l5.57,4.3c4.29,2.49,8.92,3.74,13.88,3.75h0Z"/>
      </g>
      <g class="cls-11">
        <path class="cls-13" d="m47.46,43.11c-.02.27-.05.53-.08.79s-.04.56-.01.13c-.02.46-.15.93-.23,1.38-.18.95-.42,1.89-.69,2.81s-.6,1.76-.93,2.64c-.07.17-.05.12.06-.14-.05.12-.11.24-.16.37-.09.21-.19.42-.29.64-.21.45-.44.9-.68,1.34-.62,1.15-.33,2.77.9,3.42,1.16.61,2.76.33,3.42-.9,2.08-3.89,3.3-8.09,3.7-12.48.12-1.31-1.24-2.56-2.5-2.5-1.46.07-2.37,1.1-2.5,2.5h0Z"/>
      </g>
      <g class="cls-11">
        <path class="cls-13" d="m35.04,27.1c.13.96.16,1.93.1,2.89-.02.24-.04.48-.06.72-.03.28-.03.24.02-.13-.02.12-.04.24-.06.36-.08.45-.17.89-.29,1.33s-.25.87-.41,1.3c-.05.13-.29.91-.08.24-.07.22-.2.45-.3.66-.43.87-.94,1.69-1.53,2.46-.37.48-.4,1.37-.25,1.93.16.58.61,1.21,1.15,1.49,1.32.7,2.57.22,3.42-.9,2.62-3.44,3.86-8.07,3.3-12.35-.09-.69-.22-1.26-.73-1.77-.43-.43-1.15-.76-1.77-.73-1.21.05-2.68,1.11-2.5,2.5h0Z"/>
      </g>
      <g class="cls-11">
        <path class="cls-13" d="m17.72,12.8c-.16,2.92.29,5.92,1.33,8.65.24.62.55,1.15,1.15,1.49.54.31,1.33.45,1.93.25,1.19-.39,2.24-1.77,1.75-3.08-.53-1.39-.89-2.82-1.1-4.29l.09.66c-.16-1.23-.21-2.46-.14-3.69.07-1.31-1.2-2.56-2.5-2.5-1.42.06-2.42,1.1-2.5,2.5h0Z"/>
      </g>
      <g class="cls-11">
        <path class="cls-13" d="m5.62,23.1c.57.87,1.22,1.7,1.94,2.44s1.55,1.4,2.41,1.98c.29.18.6.28.93.3.33.07.66.06,1-.04.58-.16,1.21-.61,1.49-1.15.31-.58.46-1.28.25-1.93l-.25-.6c-.22-.38-.52-.67-.9-.9-.21-.14-.42-.29-.62-.45l.51.39c-.84-.65-1.6-1.41-2.25-2.25l.39.51c-.2-.27-.4-.54-.58-.82-.35-.54-.86-.97-1.49-1.15-.33-.1-.66-.12-1-.04-.33.02-.64.11-.93.3-.53.34-1,.86-1.15,1.49s-.12,1.36.25,1.93h0Z"/>
      </g>
      <g class="cls-11">
        <path class="cls-13" d="m6.38,24.15l1.88,1.14c.58.35,1.21.68,1.76,1.09l-.51-.39c.11.09.21.18.3.29l-.39-.51c.04.06.08.12.11.19l-.25-.6c.02.05.03.1.04.15l-.09-.66c0,.06,0,.1,0,.16l.09-.66v.06c-.11.33-.13.66-.05,1,.02.33.11.64.3.93.3.52.9,1.01,1.49,1.15.64.15,1.36.11,1.93-.25.52-.33,1.04-.86,1.15-1.49.05-.29.12-.59.1-.88-.03-.43-.1-.73-.26-1.12-.18-.44-.43-.83-.79-1.16-.48-.45-1.04-.77-1.6-1.11l-2.68-1.63c-.55-.33-1.31-.42-1.93-.25-.58.16-1.21.61-1.49,1.15-.31.58-.46,1.28-.25,1.93s.58,1.15,1.15,1.49h0Z"/>
      </g>
      <g class="cls-11">
        <path class="cls-13" d="m7.95,20.98l.25,2.4c.07.67.22,1.38.14,2.04l.09-.66c-.02.13-.05.25-.1.37l.25-.6c-.03.05-.05.1-.09.15l.39-.51s-.07.08-.12.12l.51-.39c-.05.04-.1.06-.15.09l.6-.25s-.09.03-.14.04l.66-.09c-.09,0-.16,0-.25,0l.66.09c-.25-.05-.49-.14-.73-.23l.6.25c-.24-.1-.46-.22-.67-.38l.51.39c-.1-.08-.19-.17-.27-.28l.39.51c-.05-.07-.09-.14-.12-.21l.25.6c-.03-.08-.05-.16-.06-.24l.09.66s0-.09,0-.13l-3.16,2.41c.15.02.29.07.43.12l-.6-.25c.64.29,1.21.73,1.92.87.64.12,1.27.16,1.9-.04s1.14-.51,1.64-.95c1.4-1.21,1.6-3.13,1.4-4.85.01-.34-.06-.67-.22-.96-.1-.31-.27-.58-.52-.8-.43-.43-1.15-.76-1.77-.73s-1.32.24-1.77.73c-.42.46-.81,1.12-.73,1.77.07.56.12,1.12.05,1.68l.09-.66c-.04.23-.09.46-.18.68l.25-.6c-.06.14-.14.27-.23.39l.39-.51c-.11.14-.23.26-.37.38l.51-.39c-.12.09-.24.16-.38.22l.6-.25c-.11.04-.23.07-.35.09l.66-.09c-.1,0-.19,0-.29,0l.66.09c-.12-.02-.24-.05-.36-.1l.6.25c-.68-.29-1.27-.79-2.03-.9-.44-.12-.89-.12-1.33,0-.33.08-.61.23-.85.45-.62.48-.99,1.17-.99,1.96,0,1.45.94,2.74,2.24,3.34.7.32,1.42.63,2.2.64,1.13.02,2.14-.55,2.74-1.49.38-.59.52-1.29.55-1.98.02-.43-.05-.86-.1-1.28l-.3-2.97c.01-.34-.06-.67-.22-.96-.1-.31-.27-.58-.52-.8-.43-.43-1.15-.76-1.77-.73s-1.32.24-1.77.73c-.42.46-.8,1.12-.73,1.77h0Z"/>
      </g>
      <g class="cls-11">
        <path class="cls-13" d="m16.48,20.04c.6.41,1.22.81,1.8,1.25l-.51-.39c.23.18.44.37.61.59l-.39-.51c.1.14.19.28.26.44l-.25-.6c.05.13.09.27.11.41l-.09-.66c.01.12.02.23,0,.35l.09-.66c-.02.12-.05.23-.09.34-.1.33-.12.66-.04,1,.02.33.11.64.3.93.3.46.68.81,1.2,1.02s1.1.3,1.63.13c.59-.19,1.21-.57,1.49-1.15.38-.77.76-1.55,1.14-2.32.19-.39.39-.79.58-1.18.17-.34.36-.69.45-1.05.27-1.13-.2-2.32-1.2-2.92-.65-.39-1.49-.47-2.22-.56-.41-.05-.82-.06-1.22-.02-1.24.11-2.63.35-3.52,1.31-.46.5-.73,1.07-.82,1.74-.09.7.05,1.29.35,1.92.24.51.68.88,1.04,1.29l-.39-.51c.06.08.11.17.16.27l-.25-.6c.03.08.05.16.07.25l-.09-.66c0,.07,0,.13,0,.19l.09-.66c0,.06-.02.11-.05.17l.25-.6s-.03.05-.04.07l.39-.51s-.04.04-.06.06l.51-.39s-.05.03-.07.04l.6-.25s-.06.02-.09.03c-.6.14-1.19.63-1.49,1.15s-.45,1.33-.25,1.93.57,1.19,1.15,1.49c.61.32,1.25.41,1.93.25.86-.2,1.54-.85,1.88-1.65.16-.39.24-.7.26-1.13.02-.3-.04-.62-.1-.91-.08-.37-.24-.76-.47-1.07-.28-.38-.6-.68-.89-1.04l.39.51c-.06-.09-.12-.18-.16-.27l.25.6c-.02-.06-.03-.11-.04-.18l.09.66s0-.08,0-.12l-.09.66c.01-.06.03-.12.05-.18l-.25.6s.04-.07.06-.1l-.39.51c.05-.06.11-.12.17-.17l-.51.39c.09-.06.18-.11.28-.15l-.6.25c.34-.13.71-.2,1.07-.25l-.66.09c.51-.06,1.01-.06,1.52,0l-.66-.09c.29.04.59.09.87.19l-.6-.25.04.02-.51-.39.03.03-.64-1.1.02.06v-1.33.07c.07-.2.16-.4.24-.6-.28.66-.63,1.29-.95,1.94s-.64,1.3-.96,1.95l4.57,1.93c.04-.09.06-.17.08-.27.06-.28.11-.58.11-.87s-.05-.59-.1-.87c-.02-.09-.04-.19-.06-.28-.25-.76-.66-1.44-1.24-1.99-.78-.74-1.75-1.31-2.64-1.92-.51-.35-1.34-.41-1.93-.25s-1.21.61-1.49,1.15c-.31.58-.46,1.28-.25,1.93s.59,1.11,1.15,1.49h0Z"/>
      </g>
      <g class="cls-11">
        <path class="cls-13" d="m17.45,12.13c-.1,1.1-.14,2.16,0,3.25.08.57.18,1.12.39,1.66.25.64.57,1.24.84,1.87l-.25-.6c.28.69.44,1.4.59,2.12.27,1.28,1.85,2.14,3.08,1.75,1.35-.44,2.04-1.7,1.75-3.08-.13-.61-.26-1.22-.47-1.8-.27-.76-.65-1.45-.97-2.19l.25.6c-.17-.43-.28-.87-.35-1.33l.09.66c-.12-.97-.04-1.95.04-2.92.05-.6-.32-1.35-.73-1.77s-1.15-.76-1.77-.73-1.32.24-1.77.73-.67,1.07-.73,1.77h0Z"/>
      </g>
      <g class="cls-11">
        <path class="cls-13" d="m36.06,27.83h-5.32c-1.28.01-2.59,1.16-2.5,2.51.1,1.57.94,2.87,1.66,4.23.29.55.59,1.1.88,1.65.35.65.67,1.33,1.21,1.85,1.34,1.29,3.5,1.29,5,.31.37-.24.73-.53,1.06-.83.1-.09.2-.18.29-.27.06-.05.12-.11.18-.16l-3.33-.95c-.15-.39-.06-.87.12-1.22-.15.29.11-.15.16-.2.33-.23.42-.3.25-.19-.17.1-.06.06.31-.12-.41.14.63,0,.16-.04l2.16,3.76c.12-.18.24-.35.36-.53.16-.21.12-.17-.1.12.07-.08.13-.17.2-.25.27-.33.56-.64.87-.93.15-.14.33-.27.47-.43-.54.47-1.13.62-1.75.46.07.01.15.03.22.04,1.22.19,2.39-.08,3.08-1.21.96-1.58,0-3.14-1.14-4.27-.85-.85-1.98-1.48-3.21-1.5-1.11-.02-2.23.4-2.99,1.22-1.05,1.13-1.23,2.84-.45,4.17.59,1,1.7,1.73,2.84,1.95.63.12,1.21.12,1.84.06.47-.04.93-.08,1.39-.02l-1.26-4.66c-.14.08-.29.16-.43.24-.1.05-.2.1-.3.14-.2.09-.2.09,0,0,.2-.08.2-.08,0,0-.08.03-.15.06-.23.09-.16.06-.31.11-.47.15-.66.2-1.33.28-2.01.4-2,.36-3.76,1.92-3.75,4.06,0,1.31,1.14,2.56,2.5,2.5s2.51-1.1,2.5-2.5c0-.2,0-.17-.02.08,0,.21-.06.4-.18.57.18-.32-.16.2-.17.19.04-.05.09-.1.14-.14.14-.13.06-.06-.25.19.12,0,.35-.3.08-.06-.2.08-.2.09,0,.02l.16-.04c.13-.03.27-.05.4-.08.3-.05.6-.08.89-.14,1.28-.23,2.54-.74,3.67-1.38.92-.52,1.48-1.79,1.15-2.82-.13-.41-.35-.78-.64-1.1-.48-.52-1.11-.65-1.77-.73-.41-.05-.81-.03-1.22,0-.23.02-.47.05-.7.06-.13,0-.43-.06-.52,0,.46.07.56.08.3.03-.25-.08-.17-.04.24.12-.08-.06-.24-.15-.33-.19.34.28.41.33.23.15.16.14.27.31.33.51.08.23.1.26.04.09.08.29.09.58,0,.87-.21.43-.25.53-.13.31l-.26.35c.18-.17.1-.1-.26.2.22-.12.12-.08-.3.12.05-.02.11-.03.16-.04.2-.04.07-.03-.39.05.07,0,.15,0,.22,0-.48-.08-.59-.09-.34-.02-.62-.2-.28-.12-.09,0,.21.15.16.1-.17-.13.07.06.14.13.21.2.1.1.2.21.3.32.06.07.13.15.19.22.36.47.22.09-.42-1.14l.34-1.26-.05.08.9-.9,1.57-.21-.11-.02c-.23-.08-.54-.09-.78-.11-.46-.03-.89.08-1.31.25-.62.26-1.14.74-1.62,1.21-.75.74-1.42,1.59-1.99,2.48-.48.74-.44,1.78,0,2.52.47.8,1.26,1.18,2.16,1.24,2.35.15,4.3-2.17,3.83-4.44-.29-1.38-1.5-2.33-2.89-2.33-1.1,0-2.13.81-2.86,1.59l.25-.2c-.09.06-.17.11-.27.17-.39.26.51-.1.08-.05l.4-.05c-.09,0-.18,0-.27,0l.41.05c.25.07.47.21.64.4-.33-.31.21.45.02,0-.06-.16-.16-.3-.24-.45-.17-.31-.33-.63-.5-.94-.32-.6-.64-1.2-.96-1.81-.17-.31-.33-.62-.5-.94-.04-.07-.08-.15-.12-.22-.09-.2-.1-.2-.01,0,.08.2.08.19.01-.01-.06-.27-.06-.21.01.18l-2.5,2.5h5.32c1.31-.01,2.56-1.16,2.5-2.51s-1.1-2.5-2.5-2.5h0Z"/>
      </g>
      <g class="cls-11">
        <path class="cls-13" d="m35.13,27.43c-.1-.77,0,.03,0,.19.02.2.03.4.04.6.02.43.02.86,0,1.29,0,.17-.02.34-.03.51s.02.54-.07.68c.05-.38.06-.43.02-.15l-.03.17c-.04.23-.08.45-.13.67-.17.79-.42,1.54-.7,2.3-.1.25-.08.21.06-.12-.05.11-.09.21-.14.31-.07.16-.15.31-.22.46-.21.41-.43.81-.67,1.2-.69,1.11-.28,2.8.9,3.42s2.68.29,3.42-.9c1.04-1.68,1.82-3.58,2.22-5.52.45-2.17.47-4.27.17-6.45-.08-.57-.68-1.22-1.15-1.49-.54-.31-1.33-.45-1.93-.25s-1.19.57-1.49,1.15c-.34.64-.35,1.22-.25,1.93h0Z"/>
      </g>
      <g class="cls-11">
        <path class="cls-13" d="m41.82,48.09c.1.09.2.17.29.26.04.04.35.47.18.2-.2-.33.34.66.17.29-.15-.32.05.18.07.25.01.04.11.37.09.38.01,0-.03-.52-.03-.06,0,.18,0,.36.01.53.06,1.57.64,2.99,1.78,4.1.87.84,1.92,1.45,3,1.96.6.28,1.2.54,1.79.82.24.12.47.25.7.38.39.21-.12-.18.04.02.09.1.34.45.05.01l2.82-3.67c-.6-.1-1.16-.26-1.73-.46-.27-.11-.28-.11-.02,0-.14-.06-.27-.13-.4-.2-.27-.14-.52-.3-.77-.46.23.2.25.21.06.04-.19-.2-.16-.17.07.09l.21.81c-1.51,1.46-1.84,2.02-.98,1.68.3-.07.59-.2.88-.29.17-.06.8-.16.9-.3-.3.01-.59-.05-.86-.21-.25-.22-.28-.24-.07-.05.18.21.37.41.54.63-.3-.39.14.21.16.23.17.25.34.51.5.77.82,1.39,1.65,2.94,3.55,2.83.84-.05,1.76-.43,2.16-1.24,1.79-3.63-1.82-6.56-4.46-8.46-.54-.39-1.1-.78-1.69-1.09-.39-.21-.82-.41-1.26-.51-.18-.03-.37-.05-.55-.08-.37-.05-.44-.06-.22-.03,0-.05.93.68.52.21-.97-1.13-2.36-1.88-3.67-2.56-1.4-.72-3.26-.14-3.67,1.49.03-.12.52-.7.21-.36-.12.13-.24.27-.35.41-.54.65-.94,1.39-.96,2.26-.03,1.34.73,2.6,2,3.11.41.16-.27-.35.03,0,.1.12.5.47.05,0,.26.26.47.65.7.95.72.94,1.61,1.75,2.84,1.92,1.7.23,2.93-.84,3.53-2.35.34-.87.56-1.81.81-2.71.52-1.9.97-3.82,1.36-5.76.26-1.28-.37-2.76-1.75-3.08-1.24-.28-2.8.38-3.08,1.75-.5,2.46-1.09,4.89-1.8,7.3-.08.27-.18.55-.25.83-.09.26-.07.22.05-.1,1.03-.98,1.89-1.13,2.58-.46-.08,0-.44-.42-.46-.49.22.28.24.31.08.09-.05-.07-.1-.14-.15-.21-.34-.47-.68-.95-1.1-1.34-.28-.25-.59-.49-.92-.68-.1-.05-.2-.1-.31-.15-.37-.22-.22-.08.45.43l.34,1.26c-.02-.29-.06-.22-.12.22,0,.24-.09.44-.28.59.07-.01.32-.35.36-.4.45-.53.78-1.03.96-1.71l-3.67,1.49c.51.26,1.02.53,1.51.83.24.15.49.3.71.48-.44-.35.22.24.29.31.62.63,1.27,1.1,2.16,1.28.74.1.89.12.45.06.27.08.26.07-.03-.04.22.11.43.25.65.38.48.3.95.62,1.41.96-.41-.3.32.26.38.32.23.2.46.4.68.6s.44.42.65.63c.08.08.62.76.29.27.08.12.46.87.21.28.07.28.07.24,0-.12,0-.2.06-.39.16-.56l2.16-1.24c.58.02,1.01.23,1.29.64.12.17.12.15,0-.04-.07-.16-.16-.31-.24-.46-.18-.34-.38-.67-.59-.99-.49-.75-1.03-1.54-1.67-2.16-.94-.91-2.06-1.3-3.36-1.13-.87.12-1.75.47-2.57.77-1.35.48-2.37,1.42-2.46,2.92-.06,1.07.47,2.12,1.24,2.84,1.32,1.24,3.25,2.01,5.01,2.32,1.02.17,1.97-.04,2.63-.9.58-.75.76-1.95.2-2.78-.91-1.33-2.15-2.01-3.57-2.66-.55-.25-1.1-.5-1.63-.78-.25-.13-.49-.27-.73-.43-.1-.07-.2-.14-.31-.21-.27-.18.41.39,0,0-.08-.08-.17-.17-.26-.25-.26-.24.05-.02.05.1,0-.02-.19-.34-.23-.36-.17-.14.09.35.05.12-.07-.36-.17-.17-.04.02-.05-.08-.02-.33-.02-.43-.01-.4-.03-.77-.09-1.17-.21-1.57-.95-3.07-2.16-4.12-.98-.86-2.58-1.04-3.54,0-.87.94-1.05,2.62,0,3.54h0Z"/>
      </g>
    </g>
  </g>
</svg>